# xmcd
#
# Track frame offsets: 
#        183
#        19705
#        62773
#        99925
#        123983
#        156320
#        201748
#        233378
#
# Disc length: 3636 seconds
#
# Revision: 1
# Processed by: cddbd v1.5.2PL0 Copyright (c) Steve Scherf et al.
# Submitted via: ExactAudioCopy v1.0b3
#
DISCID=620e3208
DTITLE=Bach - Collection Clasicos de Siempre (9) - Bach - Conciertos d
DTITLE=e Brandenburgo 1-9
DYEAR=1900
DGENRE=Classical
TTITLE0=Bach, Branderburgo1
TTITLE1=Bach, Branderburgo2
TTITLE2=Bach, Branderburgo3
TTITLE3=Bach, Branderburgo4
TTITLE4=Bach, Branderburgo5
TTITLE5=Bach, Branderburgo6
TTITLE6=Bach, Branderburgo7
TTITLE7=Bach, Branderburgo8
EXTD=
EXTT0=
EXTT1=
EXTT2=
EXTT3=
EXTT4=
EXTT5=
EXTT6=
EXTT7=
PLAYORDER=
